# xmcd
#
# Track frame offsets:
#	150
#	26794
#	50686
#	69297
#	80262
#	97907
#	123091
#	132683
#	153238
#
# Disc length: 2206 seconds
# Revision: 1
# Processed by: cddbd v1.5.2PL0 Copyright (c) Steve Scherf et al.
# Submitted via: dBpowerAMP V12.0
#
DISCID=6e089c09
DTITLE=Breakout - Mira
DYEAR=1971
DGENRE=Blues
TTITLE0=Do kogo idziesz
TTITLE1=W co mam wierzyć
TTITLE2=Tysiąc razy kocham
TTITLE3=Zapytam ptaków
TTITLE4=Kwiaty nam powiędły
TTITLE5=A miałeś przyjść
TTITLE6=Byłeś we śnie tylko
TTITLE7=Luiza
TTITLE8=Miałam cały świat
EXTD=
EXTT0=
EXTT1=
EXTT2=
EXTT3=
EXTT4=
EXTT5=
EXTT6=
EXTT7=
EXTT8=
PLAYORDER=
